# xmcd CD database file
#
# Track frame offsets:
#	150
#	17355
#	37482
#	60770
#
# Disc length: 1140 seconds
#
# Revision: 0
# Processed by: cddbd v1.5.1PL0 Copyright (c) Steve Scherf et al.
# Submitted via: CDex 1.51
#
DISCID=27047204
DTITLE=Sade - Feel No Pain
DYEAR=1992
DGENRE=Jazz
TTITLE0=Feel No pain
TTITLE1=Love is Stronger Than Pride
TTITLE2=Feel No Pain Album
TTITLE3=Feel No Pain Extended
EXTD=YEAR: 1992
EXTT0=
EXTT1=
EXTT2=
EXTT3=
PLAYORDER=
